HIERARCHY
ROOT Hips
{
	OFFSET -0.001795 -0.223333 0.028219
	CHANNELS 6 Xposition Yposition Zposition Zrotation Yrotation Xrotation 
	JOINT LeftUpLeg
	{
		OFFSET 0.069520 -0.091406 -0.006815
		CHANNELS 3 Zrotation Yrotation Xrotation
		JOINT LeftLeg
		{
			OFFSET 0.034277 -0.375199 -0.004496
			CHANNELS 3 Zrotation Yrotation Xrotation
			JOINT LeftFoot
			{
				OFFSET -0.013596 -0.397961 -0.043693
				CHANNELS 3 Zrotation Yrotation Xrotation
				JOINT LeftToe
				{
					OFFSET 0.026358 -0.055791 0.119288
					CHANNELS 3 Zrotation Yrotation Xrotation
					End Site
					{
						OFFSET 0.000000 0.000000 0.000000
					}
				}
			}
		}
	}
	JOINT RightUpLeg
	{
		OFFSET -0.067670 -0.090522 -0.004320
		CHANNELS 3 Zrotation Yrotation Xrotation
		JOINT RightLeg
		{
			OFFSET -0.038290 -0.382569 -0.008850
			CHANNELS 3 Zrotation Yrotation Xrotation
			JOINT RightFoot
			{
				OFFSET 0.015774 -0.398415 -0.042312
				CHANNELS 3 Zrotation Yrotation Xrotation
				JOINT RightToe
				{
					OFFSET -0.025372 -0.048144 0.123348
					CHANNELS 3 Zrotation Yrotation Xrotation
					End Site
					{
						OFFSET 0.000000 0.000000 0.000000
					}
				}
			}
		}
	}
	JOINT Spine
	{
		OFFSET -0.002533 0.108963 -0.026696
		CHANNELS 3 Zrotation Yrotation Xrotation
		JOINT Spine1
		{
			OFFSET 0.005487 0.135180 0.001092
			CHANNELS 3 Zrotation Yrotation Xrotation
			JOINT Spine2
			{
				OFFSET 0.001457 0.052922 0.025425
				CHANNELS 3 Zrotation Yrotation Xrotation
				JOINT Neck
				{
					OFFSET -0.002778 0.213870 -0.042857
					CHANNELS 3 Zrotation Yrotation Xrotation
					JOINT Head
					{
						OFFSET 0.005152 0.064970 0.051349
						CHANNELS 3 Zrotation Yrotation Xrotation
						End Site
						{
							OFFSET 0.000000 0.000000 0.000000
						}
					}
				}
				JOINT LeftShoulder
				{
					OFFSET 0.078845 0.121749 -0.034090
					CHANNELS 3 Zrotation Yrotation Xrotation
					JOINT LeftArm
					{
						OFFSET 0.090977 0.030469 -0.008868
						CHANNELS 3 Zrotation Yrotation Xrotation
						JOINT LeftForeArm
						{
							OFFSET 0.259612 -0.012772 -0.027456
							CHANNELS 3 Zrotation Yrotation Xrotation
							JOINT LeftHand
							{
								OFFSET 0.249234 0.008986 -0.001171
								CHANNELS 3 Zrotation Yrotation Xrotation
								End Site
								{
									OFFSET 0.000000 0.000000 0.000000
								}
							}
						}
					}
				}
				JOINT RightShoulder
				{
					OFFSET -0.081759 0.118833 -0.038615
					CHANNELS 3 Zrotation Yrotation Xrotation
					JOINT RightArm
					{
						OFFSET -0.096012 0.032551 -0.009143
						CHANNELS 3 Zrotation Yrotation Xrotation
						JOINT RightForeArm
						{
							OFFSET -0.253742 -0.013329 -0.021401
							CHANNELS 3 Zrotation Yrotation Xrotation
							JOINT RightHand
							{
								OFFSET -0.255298 0.007772 -0.005559
								CHANNELS 3 Zrotation Yrotation Xrotation
								End Site
								{
									OFFSET 0.000000 0.000000 0.000000
								}
							}
						}
					}
				}
			}
		}
	}
}
MOTION
Frames: 17
Frame Time: 0.050000
-0.775669 0.964542 1.335674 179.297630 53.861021 -176.312412 3.570114 -8.359075 -27.955594 -5.550959 -4.212633 9.789947 0.475278 8.706038 29.890786 0.000000 0.000000 0.000000 1.464939 -2.090875 -3.110191 -25.706971 -19.453889 40.291673 39.806420 17.038543 26.568111 0.000000 0.000000 0.000000 -1.455792 -1.655258 12.820266 1.062187 -2.560501 -7.600670 1.218212 20.060150 7.164934 9.535868 -3.968170 -12.274221 0.000000 0.000000 0.000000 -15.263424 -2.724868 -38.621346 -27.790621 42.732000 -11.586529 -42.088286 -13.193979 1.004543 0.000000 0.000000 0.000000 13.430609 -11.193461 13.873166 49.405143 22.885860 8.490119 -35.863736 66.755250 -5.055959 0.000000 0.000000 0.000000 
-0.716658 0.948708 1.281270 178.769876 54.316150 -177.976850 0.125316 -6.458486 -24.686890 -4.819099 -5.385718 15.569402 5.023938 6.125420 22.507051 0.000000 0.000000 0.000000 0.121121 -3.187257 -6.755075 -50.403029 -21.864468 59.998413 52.570922 16.800956 46.784240 0.000000 0.000000 0.000000 -2.809652 -2.383746 15.200467 1.484544 -0.561898 -11.772928 1.687868 18.167088 10.920919 10.052770 -2.882186 -14.306857 0.000000 0.000000 0.000000 -15.050232 -3.541165 -39.896303 -29.197049 42.068808 -11.886224 -42.507085 -13.496009 1.249293 0.000000 0.000000 0.000000 13.619798 -14.262764 12.355213 53.031489 20.348733 8.473490 -20.531707 68.150166 4.839074 0.000000 0.000000 0.000000 
-0.663141 0.923745 1.230859 177.707146 53.428488 178.848946 -2.970542 -4.394403 -20.804537 -5.929633 -8.033016 22.076547 12.228981 4.258518 12.892505 0.000000 0.000000 0.000000 1.301046 -4.490439 -13.278030 -80.014385 -15.091567 73.772342 59.722428 16.504350 62.748483 0.000000 0.000000 0.000000 -4.683903 -3.600918 18.369693 3.046342 -1.329643 -10.242965 0.421271 15.952490 9.004543 8.346576 -1.373758 -14.781727 0.000000 0.000000 0.000000 -18.069178 -5.088425 -37.586541 -33.654307 34.688178 -10.497330 -42.574969 -17.850949 3.461566 0.000000 0.000000 0.000000 16.591211 -13.634526 13.220799 52.617272 19.041043 5.095051 -5.785957 60.946168 9.293872 0.000000 0.000000 0.000000 
-0.611922 0.911778 1.186171 178.653591 54.111208 178.015811 -4.295039 -1.932039 -15.037106 -4.429932 -8.605245 23.761328 18.392051 2.884757 5.253164 0.000000 0.000000 0.000000 4.433193 -6.725324 -21.483112 -89.712532 -10.071089 75.188277 77.541101 33.574409 65.973746 0.000000 0.000000 0.000000 -3.437222 -4.486270 20.182940 2.643606 -1.418959 -9.542987 -0.003148 11.751144 9.489324 6.810592 0.333385 -14.838602 0.000000 0.000000 0.000000 -20.010916 -6.652060 -34.840910 -37.151761 26.148875 -8.187966 -46.443483 -25.244444 7.087871 0.000000 0.000000 0.000000 21.912714 -14.991473 14.302243 50.282377 19.464617 1.107208 3.339281 49.725312 8.903011 0.000000 0.000000 0.000000 
-0.557622 0.926731 1.143577 -179.562449 54.009906 179.152337 -4.213013 -0.402099 -7.604184 -0.477491 -6.088568 19.096826 14.703307 -0.922674 4.773358 0.000000 0.000000 0.000000 8.760206 -8.505676 -27.792287 -71.582801 -13.827268 71.400802 75.157506 56.526693 43.726890 0.000000 0.000000 0.000000 -2.249415 -4.850967 20.572565 4.078694 -1.071424 -10.608340 -0.606084 7.306775 10.684711 6.905420 1.864833 -16.002419 0.000000 0.000000 0.000000 -20.718776 -7.259136 -33.585565 -39.645449 20.997808 -6.800855 -54.084241 -33.934369 12.596749 0.000000 0.000000 0.000000 21.877434 -17.378252 10.795814 51.802559 12.956676 -1.239188 6.949516 43.611754 8.728811 0.000000 0.000000 0.000000 
-0.498013 0.951190 1.099391 -177.479014 55.285959 -179.388974 -2.975993 -0.664297 -1.468409 -0.549251 -4.849144 16.942592 8.825878 1.529008 11.856814 0.000000 0.000000 0.000000 11.388091 -7.918533 -28.980400 -35.854650 -19.122862 53.248198 43.044601 42.297611 11.645053 0.000000 0.000000 0.000000 0.720027 -4.889912 19.705895 3.197320 -1.097099 -9.751178 -0.775781 1.084612 8.808025 5.026929 3.356568 -15.261667 0.000000 0.000000 0.000000 -18.629429 -2.993733 -28.613978 -42.915363 16.971687 -7.878873 -64.559871 -41.901885 19.043887 0.000000 0.000000 0.000000 18.219437 -16.715089 5.434934 54.240371 2.139276 -2.961075 9.668626 40.762609 9.163205 0.000000 0.000000 0.000000 
-0.433800 0.969554 1.052925 -178.595212 58.889399 -179.244018 -2.433672 -1.028054 1.035967 -4.113326 -5.279548 18.314353 0.667044 6.023347 20.423959 0.000000 0.000000 0.000000 10.961429 -7.175077 -28.301006 -6.425918 -12.948065 27.196089 19.850302 17.283723 15.232978 0.000000 0.000000 0.000000 2.110056 -2.970999 15.633105 2.981425 -0.863858 -10.161840 -1.397974 -3.246424 9.205944 2.311094 3.530070 -12.098876 0.000000 0.000000 0.000000 -18.914266 0.106766 -27.677555 -42.037045 15.868350 -7.571566 -71.912101 -43.736026 23.546843 0.000000 0.000000 0.000000 18.859848 -17.850528 3.720232 51.642224 -2.430617 -5.219147 15.032680 39.595332 11.216833 0.000000 0.000000 0.000000 
-0.367769 0.970561 1.005050 179.038541 61.558291 176.984827 -0.887994 -1.107865 0.412148 -14.147983 -9.677912 29.469248 -3.672000 10.898156 28.068293 0.000000 0.000000 0.000000 10.072604 -3.807312 -22.200966 1.403503 -8.682485 14.872924 3.544520 7.013207 26.003471 0.000000 0.000000 0.000000 3.277818 -2.470522 13.913810 3.151348 -1.683630 -7.934805 -4.057156 -2.261360 7.160934 4.276960 0.724425 -8.783732 0.000000 0.000000 0.000000 -17.589181 -0.323008 -24.272562 -43.146049 15.278829 -8.025946 -68.060696 -44.894310 21.045404 0.000000 0.000000 0.000000 16.979701 -16.562608 2.694720 53.477910 -7.142129 -5.494643 12.157563 37.412679 8.942995 0.000000 0.000000 0.000000 
-0.303512 0.943677 0.958359 177.524636 64.462006 171.710397 2.003997 -1.225728 -3.473463 -30.011264 -14.483134 47.196317 -5.650350 11.838517 30.486276 0.000000 0.000000 0.000000 11.103065 -1.282078 -17.079692 -2.811840 -10.275840 20.416842 1.577175 4.003538 17.240907 0.000000 0.000000 0.000000 4.680439 -3.370431 15.370763 -0.429653 -1.033672 -7.117867 -1.487513 -0.543034 6.480092 5.261735 0.248773 -8.002939 0.000000 0.000000 0.000000 -18.639873 1.329095 -24.754127 -40.904855 18.080752 -8.636043 -70.747700 -41.552538 20.948728 0.000000 0.000000 0.000000 16.182159 -16.148184 1.894936 53.053294 -8.233387 -5.799999 12.959172 36.738339 9.044785 0.000000 0.000000 0.000000 
-0.246640 0.910357 0.915440 177.108764 69.404474 168.904603 4.676339 -1.753643 -9.289569 -40.198348 -14.547706 58.669164 -0.033161 13.814608 25.778142 0.000000 0.000000 0.000000 11.866746 -0.359940 -15.274536 -10.528834 -14.058265 31.511400 9.682005 11.166713 5.712269 0.000000 0.000000 0.000000 5.367115 -4.727026 18.051889 -1.009854 0.220386 -8.795267 -0.232533 2.386256 7.599479 6.453928 0.676134 -9.612979 0.000000 0.000000 0.000000 -21.361908 0.860107 -26.093261 -36.758194 19.936380 -7.476499 -62.658158 -36.724847 16.235503 0.000000 0.000000 0.000000 22.320803 -18.152228 3.642079 46.247230 -0.924260 -6.575657 10.612160 38.907070 9.246857 0.000000 0.000000 0.000000 
-0.195879 0.897090 0.878270 177.963915 75.073684 169.141838 5.627727 -3.058265 -16.912169 -36.879825 -15.032815 61.484052 18.498788 26.343063 15.498891 0.000000 0.000000 0.000000 13.865846 0.542226 -13.171458 -17.933024 -13.630924 37.190400 14.468916 18.662264 2.153576 0.000000 0.000000 0.000000 4.859115 -4.749512 18.618199 -0.406554 0.297865 -7.956440 0.649699 4.427910 7.066846 6.388413 1.536086 -11.197925 0.000000 0.000000 0.000000 -21.432763 3.120506 -25.279817 -35.858211 20.899511 -7.925297 -53.454116 -33.819303 11.985648 0.000000 0.000000 0.000000 23.495649 -17.909609 3.593742 44.793406 5.161312 -5.447783 7.300072 39.543590 8.495577 0.000000 0.000000 0.000000 
-0.146278 0.903246 0.844951 172.000159 81.967138 164.075056 6.437478 -3.941461 -20.348192 -19.365683 -15.206039 50.778595 12.355565 15.628994 2.459923 0.000000 0.000000 0.000000 13.207051 0.997029 -10.560932 -20.939270 -11.718939 38.713543 17.538126 24.113019 3.396985 0.000000 0.000000 0.000000 4.118202 -3.886910 17.569678 -1.192951 0.802660 -8.080976 1.761346 5.577765 7.082040 6.522254 1.308419 -10.957668 0.000000 0.000000 0.000000 -20.509860 4.541477 -23.414271 -36.444655 23.291477 -9.391424 -48.490051 -30.781225 9.072547 0.000000 0.000000 0.000000 24.248121 -18.197368 2.827194 45.442997 8.340234 -4.694837 7.326310 44.926898 11.014035 0.000000 0.000000 0.000000 
-0.096890 0.918696 0.814086 57.909277 87.240596 51.176298 7.187910 -3.596733 -19.825647 -2.438104 -9.990641 33.462608 3.392791 0.993533 0.026420 0.000000 0.000000 0.000000 10.851897 1.091578 -7.312210 -20.384863 -8.357205 36.451889 17.850608 25.516126 6.539238 0.000000 0.000000 0.000000 2.251570 -2.760948 16.143916 -0.600975 1.056894 -8.320142 1.582906 7.383322 7.687891 6.897371 1.362628 -12.224499 0.000000 0.000000 0.000000 -19.717716 7.410404 -22.309297 -36.457371 25.791001 -10.764603 -46.407220 -29.709568 8.131937 0.000000 0.000000 0.000000 23.310060 -19.175309 0.709787 47.018388 9.321687 -3.969657 14.585048 52.790226 19.403047 0.000000 0.000000 0.000000 
-0.048395 0.933403 0.785437 20.348048 80.262582 14.930365 7.350021 -2.588510 -16.254990 7.837635 -4.185637 16.930938 -14.297130 -11.154672 12.621830 0.000000 0.000000 0.000000 8.002215 0.918860 -6.156666 -22.006036 -5.938709 36.486903 19.661156 27.774470 10.985663 0.000000 0.000000 0.000000 0.373560 -1.926537 14.669867 0.014732 1.096689 -8.496269 2.315668 6.792180 9.367809 8.696992 -0.470747 -11.170464 0.000000 0.000000 0.000000 -20.704592 10.864794 -22.856317 -35.895496 25.850041 -10.699329 -42.896088 -29.812087 7.721609 0.000000 0.000000 0.000000 21.591542 -16.618805 0.960815 47.485838 8.691750 -3.936616 20.989212 58.909476 26.584689 0.000000 0.000000 0.000000 
-0.002181 0.938974 0.757911 12.952963 70.936128 7.717240 5.830706 -1.616860 -12.373025 9.786388 -3.309083 13.417794 -17.517740 -8.537760 18.772320 0.000000 0.000000 0.000000 5.467256 0.800803 -7.879734 -25.435094 -4.207125 41.694728 18.453159 27.059133 14.806451 0.000000 0.000000 0.000000 -1.491686 -1.264771 13.150305 1.729443 0.061989 -5.685268 1.292732 8.596776 9.280552 9.053746 -1.350155 -11.040824 0.000000 0.000000 0.000000 -20.394368 8.411257 -19.771517 -39.905808 25.190948 -11.707506 -35.262640 -31.163860 6.349725 0.000000 0.000000 0.000000 21.409854 -15.605279 0.313271 47.591193 9.507798 -3.337993 27.242756 61.014544 31.213319 0.000000 0.000000 0.000000 
0.037645 0.933209 0.731410 10.548686 64.859662 5.675190 5.273136 -1.267978 -10.407410 7.822324 -3.306942 14.907106 -12.701167 -5.761964 14.815878 0.000000 0.000000 0.000000 2.143464 0.150464 -13.662761 -27.387888 -5.055711 54.546517 14.624395 23.776801 12.518345 0.000000 0.000000 0.000000 -2.851187 -1.401297 14.846888 2.866557 -0.416518 -5.251410 1.123630 4.262787 8.263031 9.580433 -2.707272 -10.541320 0.000000 0.000000 0.000000 -23.880956 9.896894 -20.062448 -38.953742 19.671529 -8.974617 -27.389096 -26.783155 4.516169 0.000000 0.000000 0.000000 17.716933 -13.112131 -1.028107 47.527187 7.985689 -3.003069 32.279099 57.326106 30.333056 0.000000 0.000000 0.000000 
0.069912 0.921954 0.708773 8.537973 57.508957 3.026288 4.539162 -0.821568 -6.730778 5.482915 -3.391491 17.224750 -5.343908 -4.950661 5.160337 0.000000 0.000000 0.000000 1.453793 -0.439690 -20.699040 -30.102318 -1.944293 64.459528 13.581072 20.567250 15.169208 0.000000 0.000000 0.000000 -3.734790 -1.964798 18.754511 1.993361 -0.244905 -4.231573 2.135444 1.779755 6.944645 9.223142 -3.127670 -10.661062 0.000000 0.000000 0.000000 -28.091755 5.109538 -17.436436 -36.042044 12.085892 -5.261116 -22.431368 -22.860817 3.702297 0.000000 0.000000 0.000000 19.246466 -11.510437 -1.390614 46.060401 8.353871 -3.066794 30.307281 53.854200 24.640777 0.000000 0.000000 0.000000 
